<svg width="352" height="56" viewBox="0 0 352 56" fill="none" xmlns="http://www.w3.org/2000/svg">
<rect x="1.5" y="1.5" width="349" height="53" rx="8.5" stroke="#96C6D8" stroke-width="3" stroke-linejoin="round" stroke-dasharray="20 5"/>
<g clip-path="url(#clip0_2939_3655)">
<path d="M193 28.5C193 32.8761 191.262 37.0729 188.167 40.1673C185.073 43.2616 180.876 45 176.5 45C172.124 45 167.927 43.2616 164.833 40.1673C161.738 37.0729 160 32.8761 160 28.5C160 24.1239 161.738 19.9271 164.833 16.8327C167.927 13.7384 172.124 12 176.5 12C180.876 12 185.073 13.7384 188.167 16.8327C191.262 19.9271 193 24.1239 193 28.5ZM177.531 21.2813C177.531 21.0077 177.423 20.7454 177.229 20.552C177.036 20.3586 176.774 20.25 176.5 20.25C176.226 20.25 175.964 20.3586 175.771 20.552C175.577 20.7454 175.469 21.0077 175.469 21.2813V27.4688H169.281C169.008 27.4688 168.745 27.5774 168.552 27.7708C168.359 27.9642 168.25 28.2265 168.25 28.5C168.25 28.7735 168.359 29.0358 168.552 29.2292C168.745 29.4226 169.008 29.5313 169.281 29.5313H175.469V35.7188C175.469 35.9923 175.577 36.2546 175.771 36.448C175.964 36.6414 176.226 36.75 176.5 36.75C176.774 36.75 177.036 36.6414 177.229 36.448C177.423 36.2546 177.531 35.9923 177.531 35.7188V29.5313H183.719C183.992 29.5313 184.255 29.4226 184.448 29.2292C184.641 29.0358 184.75 28.7735 184.75 28.5C184.75 28.2265 184.641 27.9642 184.448 27.7708C184.255 27.5774 183.992 27.4688 183.719 27.4688H177.531V21.2813Z" fill="#D1E6EE"/>
</g>
<defs>
<clipPath id="clip0_2939_3655">
<rect width="33" height="33" fill="white" transform="translate(160 12)"/>
</clipPath>
</defs>
</svg>
