<svg width="44" height="44" viewBox="0 0 44 44" fill="none" xmlns="http://www.w3.org/2000/svg">
<rect x="8" y="8" width="28" height="28" fill="white"/>
<path d="M44 22C44 27.8348 41.6822 33.4306 37.5564 37.5564C33.4306 41.6822 27.8348 44 22 44C16.1652 44 10.5695 41.6822 6.44365 37.5564C2.31785 33.4306 0 27.8348 0 22C0 16.1652 2.31785 10.5695 6.44365 6.44365C10.5695 2.31785 16.1652 0 22 0C27.8348 0 33.4306 2.31785 37.5564 6.44365C41.6822 10.5695 44 16.1652 44 22ZM23.375 12.375C23.375 12.0103 23.2301 11.6606 22.9723 11.4027C22.7144 11.1449 22.3647 11 22 11C21.6353 11 21.2856 11.1449 21.0277 11.4027C20.7699 11.6606 20.625 12.0103 20.625 12.375V20.625H12.375C12.0103 20.625 11.6606 20.7699 11.4027 21.0277C11.1449 21.2856 11 21.6353 11 22C11 22.3647 11.1449 22.7144 11.4027 22.9723C11.6606 23.2301 12.0103 23.375 12.375 23.375H20.625V31.625C20.625 31.9897 20.7699 32.3394 21.0277 32.5973C21.2856 32.8551 21.6353 33 22 33C22.3647 33 22.7144 32.8551 22.9723 32.5973C23.2301 32.3394 23.375 31.9897 23.375 31.625V23.375H31.625C31.9897 23.375 32.3394 23.2301 32.5973 22.9723C32.8551 22.7144 33 22.3647 33 22C33 21.6353 32.8551 21.2856 32.5973 21.0277C32.3394 20.7699 31.9897 20.625 31.625 20.625H23.375V12.375Z" fill="#10537D"/>
</svg>
