<svg width="25" height="25" viewBox="0 0 25 25" fill="none" xmlns="http://www.w3.org/2000/svg">
<path d="M11.0435 6.38C10.7635 6.38 10.4635 6.416 10.1435 6.488C9.82354 6.552 9.47954 6.672 9.11154 6.848L8.84754 6.212C9.22354 6.036 9.59954 5.912 9.97554 5.84C10.3515 5.76 10.7075 5.72 11.0435 5.72C11.8115 5.72 12.3835 5.912 12.7595 6.296C13.1435 6.672 13.3355 7.136 13.3355 7.688V7.892C13.3355 8.356 13.2595 8.744 13.1075 9.056C12.9555 9.36 12.7395 9.64 12.4595 9.896L12.0755 10.244C11.8115 10.484 11.6315 10.7 11.5355 10.892C11.4475 11.076 11.4035 11.32 11.4035 11.624V11.936H10.6835V11.636C10.6835 11.324 10.7195 11.064 10.7915 10.856C10.8635 10.64 10.9715 10.444 11.1155 10.268C11.2675 10.084 11.4555 9.888 11.6795 9.68L12.0635 9.332C12.2235 9.18 12.3475 8.992 12.4355 8.768C12.5315 8.544 12.5795 8.252 12.5795 7.892V7.688C12.5795 7.28 12.4435 6.96 12.1715 6.728C11.8995 6.496 11.5235 6.38 11.0435 6.38ZM11.4995 14H10.6355V13.124H11.4995V14Z" fill="#508B70"/>
<path fill-rule="evenodd" clip-rule="evenodd" d="M4.30744 18.9083H1.71429C0.767513 18.9083 0 18.1513 0 17.2174V3.69083C0 2.75701 0.767512 2 1.71429 2H22.2857C23.2325 2 24 2.75701 24 3.69083V17.2174C24 18.1513 23.2325 18.9083 22.2857 18.9083H9.44195L5.19318 23.8182L4.30744 18.9083ZM1.71429 2.84541H22.2857C22.7591 2.84541 23.1429 3.22392 23.1429 3.69083V17.2174C23.1429 17.6844 22.7591 18.0629 22.2857 18.0629H5.14286H1.71429C1.2409 18.0629 0.857143 17.6844 0.857143 17.2174V3.69083C0.857143 3.22392 1.2409 2.84541 1.71429 2.84541ZM8.57143 18.0629L5.7192 21.9081L5.14286 18.0629H8.57143Z" fill="#508B70"/>
</svg>
