<svg width="25" height="26" viewBox="0 0 25 26" fill="none" xmlns="http://www.w3.org/2000/svg">
<path d="M16.0952 4C15.8286 4 15.603 4.10254 15.4287 4.27686L7.29736 12.2236C7.10254 12.4185 7 12.6543 7 12.9106C7 13.1772 7.10254 13.4233 7.29736 13.5977L15.4185 21.5342C15.603 21.7188 15.8286 21.8213 16.0952 21.8213C16.6284 21.8213 17.0283 21.4111 17.0283 20.8779C17.0283 20.6318 16.9258 20.3857 16.7617 20.2114L9.29688 12.9106L16.7617 5.60986C16.9258 5.43555 17.0283 5.19971 17.0283 4.94336C17.0283 4.41016 16.6284 4 16.0952 4Z" fill="black"/>
</svg>
