<svg width="19" height="18" viewBox="0 0 19 18" fill="none" xmlns="http://www.w3.org/2000/svg">
<path d="M8.5 3H1.5C1.1023 3.00028 0.720997 3.11326 0.439779 3.31413C0.15856 3.515 0.000397108 3.78736 0 4.07143V16.9286C0.000397108 17.2126 0.15856 17.485 0.439779 17.6859C0.720997 17.8867 1.1023 17.9997 1.5 18H13.5C13.8977 17.9997 14.279 17.8867 14.5602 17.6859C14.8414 17.485 14.9996 17.2126 15 16.9286V11.5714H13.5V13.9524V16.3333H7.5H1.875V10.2024V4.66667H5.15625H8.5V3Z" fill="black"/>
<path d="M17.8503 3.39569L15.0378 0.301935C14.862 0.108606 14.6236 0 14.375 0C14.1264 0 13.888 0.108606 13.7122 0.301935L5 9.88534V14.4373H9.13812L17.8503 4.85387C18.0261 4.66049 18.1248 4.39823 18.1248 4.12478C18.1248 3.85133 18.0261 3.58907 17.8503 3.39569ZM8.36188 12.3748H6.875V10.7392L11.5625 5.58297L13.0494 7.21853L8.36188 12.3748ZM14.375 5.76034L12.8881 4.12478L14.375 2.48922L15.8619 4.12478L14.375 5.76034Z" fill="black"/>
</svg>
