<svg width="65" height="65" viewBox="0 0 65 65" fill="none" xmlns="http://www.w3.org/2000/svg">
<g id="Facebook icon" clip-path="url(#clip0_448_7407)">
<g id="Group">
<path id="Vector" fill-rule="evenodd" clip-rule="evenodd" d="M0 32.6815C0 48.8394 11.7352 62.2754 27.0833 65V41.5269H18.9583V32.5H27.0833V25.2769C27.0833 17.1519 32.3185 12.6398 39.7231 12.6398C42.0685 12.6398 44.5981 13 46.9435 13.3602V21.6667H42.7917C38.8185 21.6667 37.9167 23.6519 37.9167 26.1815V32.5H46.5833L45.1398 41.5269H37.9167V65C53.2648 62.2754 65 48.8421 65 32.6815C65 14.7063 50.375 0 32.5 0C14.625 0 0 14.7063 0 32.6815Z" fill="#3B5998"/>
</g>
</g>
<defs>
<clipPath id="clip0_448_7407">
<rect width="65" height="65" fill="white"/>
</clipPath>
</defs>
</svg>
