<svg width="37" height="35" viewBox="0 0 37 35" fill="none" xmlns="http://www.w3.org/2000/svg">
<rect width="36.6667" height="35" rx="7" fill="#96C6D8"/>
<path d="M9 9.33333H16M16 9.33333C16 10.622 17.0446 11.6667 18.3333 11.6667C19.622 11.6667 20.6667 10.622 20.6667 9.33333M16 9.33333C16 8.04467 17.0446 7 18.3333 7C19.622 7 20.6667 8.04467 20.6667 9.33333M20.6667 9.33333H27.6667M9 17.5H23M23 17.5C23 18.7887 24.0446 19.8333 25.3333 19.8333C26.622 19.8333 27.6667 18.7887 27.6667 17.5C27.6667 16.2113 26.622 15.1667 25.3333 15.1667C24.0446 15.1667 23 16.2113 23 17.5ZM13.6667 25.6667H27.6667M13.6667 25.6667C13.6667 24.378 12.622 23.3333 11.3333 23.3333C10.0447 23.3333 9 24.378 9 25.6667C9 26.9554 10.0447 28 11.3333 28C12.622 28 13.6667 26.9554 13.6667 25.6667Z" stroke="#10537D" stroke-linecap="round"/>
</svg>
