<svg width="77" height="77" viewBox="0 0 77 77" fill="none" xmlns="http://www.w3.org/2000/svg">
<g id="Google icon">
<path id="Vector" d="M69.9596 32.2166H67.3753V32.0834H38.5003V44.9167H56.6322C53.987 52.3874 46.8789 57.7501 38.5003 57.7501C27.8695 57.7501 19.2503 49.1309 19.2503 38.5001C19.2503 27.8693 27.8695 19.2501 38.5003 19.2501C43.4075 19.2501 47.8719 21.1013 51.2711 24.1251L60.3459 15.0504C54.6158 9.7101 46.9511 6.41675 38.5003 6.41675C20.7823 6.41675 6.41699 20.7821 6.41699 38.5001C6.41699 56.2181 20.7823 70.5834 38.5003 70.5834C56.2183 70.5834 70.5837 56.2181 70.5837 38.5001C70.5837 36.3489 70.3623 34.249 69.9596 32.2166Z" fill="#FFC107"/>
<path id="Vector_2" d="M10.1162 23.5669L20.6572 31.2974C23.5094 24.2358 30.4169 19.2501 38.5003 19.2501C43.4075 19.2501 47.8719 21.1013 51.2711 24.1251L60.3459 15.0504C54.6158 9.7101 46.9511 6.41675 38.5003 6.41675C26.1771 6.41675 15.4902 13.374 10.1162 23.5669Z" fill="#FF3D00"/>
<path id="Vector_3" d="M38.4997 70.5835C46.7868 70.5835 54.3168 67.412 60.01 62.2546L50.0802 53.852C46.7508 56.384 42.6825 57.7534 38.4997 57.7501C30.1548 57.7501 23.0692 52.4291 20.3999 45.0034L9.9375 53.0644C15.2473 63.4545 26.0305 70.5835 38.4997 70.5835Z" fill="#4CAF50"/>
<path id="Vector_4" d="M69.9593 32.2164H67.375V32.0833H38.5V44.9166H56.6319C55.3665 48.4721 53.0873 51.579 50.0757 53.8534L50.0805 53.8502L60.0103 62.2528C59.3077 62.8913 70.5833 54.5416 70.5833 38.4999C70.5833 36.3487 70.362 34.2489 69.9593 32.2164Z" fill="#1976D2"/>
</g>
</svg>
