<svg width="22" height="22" viewBox="0 0 22 22" fill="none" xmlns="http://www.w3.org/2000/svg">
<path d="M1.8125 3.4375C1.8125 2.89049 2.01992 2.36589 2.38913 1.97909C2.75835 1.5923 3.25911 1.375 3.78125 1.375H7.71875C8.24089 1.375 8.74165 1.5923 9.11087 1.97909C9.48008 2.36589 9.6875 2.89049 9.6875 3.4375V7.5625C9.6875 8.10951 9.48008 8.63411 9.11087 9.02091C8.74165 9.4077 8.24089 9.625 7.71875 9.625H3.78125C3.25911 9.625 2.75835 9.4077 2.38913 9.02091C2.01992 8.63411 1.8125 8.10951 1.8125 7.5625V3.4375ZM3.78125 2.75C3.6072 2.75 3.44028 2.82243 3.31721 2.95136C3.19414 3.0803 3.125 3.25516 3.125 3.4375V7.5625C3.125 7.74484 3.19414 7.9197 3.31721 8.04864C3.44028 8.17757 3.6072 8.25 3.78125 8.25H7.71875C7.8928 8.25 8.05972 8.17757 8.18279 8.04864C8.30586 7.9197 8.375 7.74484 8.375 7.5625V3.4375C8.375 3.25516 8.30586 3.0803 8.18279 2.95136C8.05972 2.82243 7.8928 2.75 7.71875 2.75H3.78125ZM12.3125 3.4375C12.3125 2.89049 12.5199 2.36589 12.8891 1.97909C13.2583 1.5923 13.7591 1.375 14.2812 1.375H18.2188C18.7409 1.375 19.2417 1.5923 19.6109 1.97909C19.9801 2.36589 20.1875 2.89049 20.1875 3.4375V7.5625C20.1875 8.10951 19.9801 8.63411 19.6109 9.02091C19.2417 9.4077 18.7409 9.625 18.2188 9.625H14.2812C13.7591 9.625 13.2583 9.4077 12.8891 9.02091C12.5199 8.63411 12.3125 8.10951 12.3125 7.5625V3.4375ZM14.2812 2.75C14.1072 2.75 13.9403 2.82243 13.8172 2.95136C13.6941 3.0803 13.625 3.25516 13.625 3.4375V7.5625C13.625 7.74484 13.6941 7.9197 13.8172 8.04864C13.9403 8.17757 14.1072 8.25 14.2812 8.25H18.2188C18.3928 8.25 18.5597 8.17757 18.6828 8.04864C18.8059 7.9197 18.875 7.74484 18.875 7.5625V3.4375C18.875 3.25516 18.8059 3.0803 18.6828 2.95136C18.5597 2.82243 18.3928 2.75 18.2188 2.75H14.2812ZM1.8125 14.4375C1.8125 13.8905 2.01992 13.3659 2.38913 12.9791C2.75835 12.5923 3.25911 12.375 3.78125 12.375H7.71875C8.24089 12.375 8.74165 12.5923 9.11087 12.9791C9.48008 13.3659 9.6875 13.8905 9.6875 14.4375V18.5625C9.6875 19.1095 9.48008 19.6341 9.11087 20.0209C8.74165 20.4077 8.24089 20.625 7.71875 20.625H3.78125C3.25911 20.625 2.75835 20.4077 2.38913 20.0209C2.01992 19.6341 1.8125 19.1095 1.8125 18.5625V14.4375ZM3.78125 13.75C3.6072 13.75 3.44028 13.8224 3.31721 13.9514C3.19414 14.0803 3.125 14.2552 3.125 14.4375V18.5625C3.125 18.7448 3.19414 18.9197 3.31721 19.0486C3.44028 19.1776 3.6072 19.25 3.78125 19.25H7.71875C7.8928 19.25 8.05972 19.1776 8.18279 19.0486C8.30586 18.9197 8.375 18.7448 8.375 18.5625V14.4375C8.375 14.2552 8.30586 14.0803 8.18279 13.9514C8.05972 13.8224 7.8928 13.75 7.71875 13.75H3.78125ZM12.3125 14.4375C12.3125 13.8905 12.5199 13.3659 12.8891 12.9791C13.2583 12.5923 13.7591 12.375 14.2812 12.375H18.2188C18.7409 12.375 19.2417 12.5923 19.6109 12.9791C19.9801 13.3659 20.1875 13.8905 20.1875 14.4375V18.5625C20.1875 19.1095 19.9801 19.6341 19.6109 20.0209C19.2417 20.4077 18.7409 20.625 18.2188 20.625H14.2812C13.7591 20.625 13.2583 20.4077 12.8891 20.0209C12.5199 19.6341 12.3125 19.1095 12.3125 18.5625V14.4375ZM14.2812 13.75C14.1072 13.75 13.9403 13.8224 13.8172 13.9514C13.6941 14.0803 13.625 14.2552 13.625 14.4375V18.5625C13.625 18.7448 13.6941 18.9197 13.8172 19.0486C13.9403 19.1776 14.1072 19.25 14.2812 19.25H18.2188C18.3928 19.25 18.5597 19.1776 18.6828 19.0486C18.8059 18.9197 18.875 18.7448 18.875 18.5625V14.4375C18.875 14.2552 18.8059 14.0803 18.6828 13.9514C18.5597 13.8224 18.3928 13.75 18.2188 13.75H14.2812Z" fill="black"/>
</svg>
