<svg width="18" height="18" viewBox="0 0 18 18" fill="none" xmlns="http://www.w3.org/2000/svg">
<g clip-path="url(#clip0_718_9304)">
<path d="M17.6494 3.6092C18.467 6.03698 17.7828 8.50742 16.341 10.3688C15.3893 11.631 14.2519 12.7189 13.089 13.6699C12.0192 14.6271 9.62502 16.5209 8.9904 16.5735C8.42949 16.4704 7.8001 15.8608 7.35481 15.5471C4.85254 13.7189 2.15895 11.4957 0.793169 9.06493C-0.35193 6.73129 -0.354031 3.84485 1.42816 2.0557C3.73906 0.0534012 7.22299 0.444655 8.99038 2.53656C9.46504 1.94475 10.0487 1.47931 10.7414 1.14026C13.5496 0.0629306 16.471 1.1607 17.6494 3.6092Z" fill="#508B70"/>
</g>
<defs>
<clipPath id="clip0_718_9304">
<rect width="18" height="17.3" fill="white"/>
</clipPath>
</defs>
</svg>
