<svg width="18" height="18" viewBox="0 0 18 18" fill="none" xmlns="http://www.w3.org/2000/svg">
<path d="M8.99988 3.16941L8.19326 2.3194C6.29988 0.324142 2.82813 1.01268 1.57488 3.52117C0.986507 4.70103 0.853757 6.4045 1.92813 8.57852C2.96313 10.6718 5.11638 13.1792 8.99988 15.9102C12.8834 13.1792 15.0355 10.6718 16.0716 8.57852C17.146 6.40334 17.0144 4.70103 16.4249 3.52117C15.1716 1.01268 11.6999 0.322988 9.80651 2.31825L8.99988 3.16941ZM8.99988 17.3C-8.24974 5.61446 3.68876 -3.50607 8.80188 1.31831C8.86938 1.38174 8.93576 1.44748 8.99988 1.51553C9.06336 1.44755 9.12941 1.38214 9.19788 1.31946C14.3099 -3.50837 26.2495 5.61331 8.99988 17.3Z" fill="#508B70"/>
</svg>
