<svg width="18" height="18" viewBox="0 0 18 18" fill="none" xmlns="http://www.w3.org/2000/svg">
<path d="M14.2031 11.6236C13.7938 11.6237 13.39 11.7142 13.023 11.8882C12.656 12.0623 12.3355 12.3151 12.0864 12.6272L6.32347 9.48357C6.51711 8.94358 6.51711 8.35682 6.32347 7.81683L12.0864 4.67323C12.4886 5.17483 13.0697 5.51574 13.7178 5.63034C14.3658 5.74494 15.0351 5.62514 15.5968 5.29399C16.1585 4.96285 16.5729 4.44375 16.7603 3.83659C16.9477 3.22944 16.8948 2.57712 16.6119 2.00516C16.329 1.43319 15.836 0.982007 15.2277 0.738412C14.6195 0.494817 13.939 0.476026 13.3172 0.685655C12.6954 0.895284 12.1762 1.31852 11.8596 1.87393C11.543 2.42933 11.4512 3.07766 11.6021 3.69416L5.74096 6.89134C5.3742 6.51636 4.89867 6.25594 4.37604 6.14386C3.85341 6.03178 3.3078 6.07322 2.80997 6.2628C2.31214 6.45239 1.88507 6.78136 1.58414 7.20706C1.28321 7.63276 1.12231 8.13554 1.12231 8.6502C1.12231 9.16486 1.28321 9.66764 1.58414 10.0933C1.88507 10.519 2.31214 10.848 2.80997 11.0376C3.3078 11.2272 3.85341 11.2686 4.37604 11.1565C4.89867 11.0445 5.3742 10.784 5.74096 10.4091L11.6021 13.6063C11.4758 14.1253 11.5206 14.6692 11.7304 15.1626C11.9401 15.656 12.3045 16.0744 12.7729 16.3598C13.2412 16.6452 13.7904 16.7835 14.3442 16.7554C14.898 16.7273 15.429 16.5343 15.8635 16.203C16.298 15.8718 16.6145 15.4189 16.7691 14.907C16.9237 14.3951 16.9087 13.8497 16.7262 13.3463C16.5437 12.843 16.2027 12.4068 15.7506 12.0981C15.2985 11.7894 14.7577 11.6236 14.2031 11.6236ZM14.2031 1.62208C14.509 1.62208 14.8081 1.70927 15.0625 1.87263C15.3169 2.036 15.5151 2.26819 15.6322 2.53985C15.7493 2.81151 15.7799 3.11044 15.7202 3.39884C15.6605 3.68723 15.5132 3.95214 15.2969 4.16006C15.0805 4.36798 14.8049 4.50958 14.5049 4.56695C14.2048 4.62431 13.8938 4.59487 13.6111 4.48234C13.3285 4.36982 13.0869 4.17926 12.9169 3.93477C12.7469 3.69028 12.6562 3.40284 12.6562 3.10879C12.6567 2.71463 12.8198 2.33673 13.1098 2.05801C13.3998 1.77929 13.793 1.62251 14.2031 1.62208ZM3.79682 10.1369C3.49088 10.1369 3.19181 10.0497 2.93743 9.88636C2.68304 9.723 2.48478 9.4908 2.3677 9.21914C2.25062 8.94748 2.21998 8.64855 2.27967 8.36016C2.33936 8.07176 2.48668 7.80685 2.70302 7.59893C2.91935 7.39101 3.19498 7.24941 3.49504 7.19205C3.79511 7.13468 4.10613 7.16412 4.38879 7.27665C4.67144 7.38918 4.91303 7.57973 5.083 7.82422C5.25298 8.06871 5.3437 8.35615 5.3437 8.6502C5.34324 9.04437 5.18012 9.42227 4.89013 9.70098C4.60013 9.9797 4.20694 10.1365 3.79682 10.1369ZM14.2031 15.6783C13.8971 15.6783 13.5981 15.5911 13.3437 15.4278C13.0893 15.2644 12.891 15.0322 12.7739 14.7605C12.6569 14.4889 12.6262 14.19 12.6859 13.9016C12.7456 13.6132 12.8929 13.3483 13.1093 13.1403C13.3256 12.9324 13.6012 12.7908 13.9013 12.7335C14.2014 12.6761 14.5124 12.7055 14.795 12.8181C15.0777 12.9306 15.3193 13.1211 15.4893 13.3656C15.6592 13.6101 15.7499 13.8976 15.7499 14.1916C15.7495 14.5858 15.5864 14.9637 15.2964 15.2424C15.0064 15.5211 14.6132 15.6779 14.2031 15.6783Z" fill="#508B70"/>
</svg>
