<svg width="16" height="17" viewBox="0 0 16 17" fill="none" xmlns="http://www.w3.org/2000/svg">
<path fill-rule="evenodd" clip-rule="evenodd" d="M0.4375 15.75C0.4375 15.5096 0.509933 15.2791 0.638864 15.1092C0.767795 14.9392 0.942664 14.8438 1.125 14.8438H14.875C15.0573 14.8438 15.2322 14.9392 15.3611 15.1092C15.4901 15.2791 15.5625 15.5096 15.5625 15.75C15.5625 15.9904 15.4901 16.2209 15.3611 16.3908C15.2322 16.5608 15.0573 16.6562 14.875 16.6562H1.125C0.942664 16.6562 0.767795 16.5608 0.638864 16.3908C0.509933 16.2209 0.4375 15.9904 0.4375 15.75ZM0.4375 8.5C0.4375 8.25965 0.509933 8.02914 0.638864 7.85918C0.767795 7.68923 0.942664 7.59375 1.125 7.59375H14.875C15.0573 7.59375 15.2322 7.68923 15.3611 7.85918C15.4901 8.02914 15.5625 8.25965 15.5625 8.5C15.5625 8.74035 15.4901 8.97086 15.3611 9.14082C15.2322 9.31077 15.0573 9.40625 14.875 9.40625H1.125C0.942664 9.40625 0.767795 9.31077 0.638864 9.14082C0.509933 8.97086 0.4375 8.74035 0.4375 8.5ZM0.4375 1.25C0.4375 1.00965 0.509933 0.779139 0.638864 0.609185C0.767795 0.43923 0.942664 0.34375 1.125 0.34375H14.875C15.0573 0.34375 15.2322 0.43923 15.3611 0.609185C15.4901 0.779139 15.5625 1.00965 15.5625 1.25C15.5625 1.49035 15.4901 1.72086 15.3611 1.89082C15.2322 2.06077 15.0573 2.15625 14.875 2.15625H1.125C0.942664 2.15625 0.767795 2.06077 0.638864 1.89082C0.509933 1.72086 0.4375 1.49035 0.4375 1.25Z" fill="black"/>
</svg>
