<svg width="25" height="24" viewBox="0 0 25 24" fill="none" xmlns="http://www.w3.org/2000/svg">
<path d="M12.5 1.5C10.2216 1.50258 8.03734 2.3726 6.42628 3.91922C4.81522 5.46584 3.90895 7.56276 3.90626 9.75C3.90353 11.5374 4.51171 13.2763 5.63751 14.7C5.63751 14.7 5.87188 14.9963 5.91017 15.039L12.5 22.5L19.093 15.0353C19.1274 14.9955 19.3625 14.7 19.3625 14.7L19.3633 14.6978C20.4885 13.2747 21.0964 11.5366 21.0938 9.75C21.0911 7.56276 20.1848 5.46584 18.5737 3.91922C16.9627 2.3726 14.7784 1.50258 12.5 1.5ZM12.5 12.75C11.8819 12.75 11.2778 12.5741 10.7639 12.2444C10.2499 11.9148 9.84941 11.4462 9.61288 10.8981C9.37636 10.3499 9.31448 9.74667 9.43505 9.16473C9.55563 8.58279 9.85326 8.04824 10.2903 7.62868C10.7273 7.20912 11.2842 6.9234 11.8904 6.80764C12.4965 6.69189 13.1249 6.7513 13.6959 6.97836C14.2669 7.20542 14.755 7.58994 15.0984 8.08329C15.4417 8.57664 15.625 9.15666 15.625 9.75C15.624 10.5453 15.2944 11.3078 14.7086 11.8702C14.1227 12.4326 13.3285 12.749 12.5 12.75Z" fill="#FB1717"/>
</svg>
