<svg width="37" height="23" viewBox="0 0 37 23" fill="none" xmlns="http://www.w3.org/2000/svg">
<rect width="37" height="23" fill="white"/>
<path d="M5.5 11.5C5.5 9.84315 6.84315 8.5 8.5 8.5C10.1569 8.5 11.5 9.84315 11.5 11.5C11.5 13.1569 10.1569 14.5 8.5 14.5C6.84315 14.5 5.5 13.1569 5.5 11.5Z" fill="black" stroke="black"/>
<path d="M16.5 11.5C16.5 9.84315 17.8431 8.5 19.5 8.5C21.1569 8.5 22.5 9.84315 22.5 11.5C22.5 13.1569 21.1569 14.5 19.5 14.5C17.8431 14.5 16.5 13.1569 16.5 11.5Z" fill="black" stroke="black"/>
<path d="M26.5 11.5C26.5 9.84315 27.8431 8.5 29.5 8.5C31.1569 8.5 32.5 9.84315 32.5 11.5C32.5 13.1569 31.1569 14.5 29.5 14.5C27.8431 14.5 26.5 13.1569 26.5 11.5Z" fill="black" stroke="black"/>
</svg>
