<svg width="22" height="22" viewBox="0 0 22 22" fill="none" xmlns="http://www.w3.org/2000/svg">
<path d="M11 0C4.93466 0 0 4.93466 0 11C0 17.0653 4.93466 22 11 22C17.0653 22 22 17.0653 22 11C22 4.93466 17.0653 0 11 0ZM8.34413 6.17798C9.01418 5.46774 9.95712 5.07692 11 5.07692C12.0429 5.07692 12.9774 5.47038 13.65 6.18433C14.3317 6.90779 14.6633 7.87981 14.585 8.92481C14.4285 11 12.8208 12.6923 11 12.6923C9.17918 12.6923 7.56832 11 7.41495 8.92428C7.33721 7.87082 7.66827 6.89563 8.34413 6.17798ZM11 20.3077C9.75746 20.3085 8.5274 20.0598 7.38278 19.5763C6.23815 19.0929 5.20226 18.3845 4.33654 17.4932C4.83236 16.7861 5.46412 16.1849 6.1949 15.7247C7.54293 14.8606 9.24899 14.3846 11 14.3846C12.751 14.3846 14.4571 14.8606 15.8035 15.7247C16.5349 16.1847 17.1672 16.7859 17.6635 17.4932C16.7978 18.3846 15.7619 19.093 14.6173 19.5765C13.4727 20.06 12.2426 20.3086 11 20.3077Z" fill="#508B70"/>
</svg>
