<svg width="25" height="24" viewBox="0 0 25 24" fill="none" xmlns="http://www.w3.org/2000/svg">
<path id="Search Button" d="M17.6471 14.625C18.5752 13.15 19.1196 11.4 19.1196 9.51875C19.1196 4.2625 14.9064 0 9.70938 0C4.50623 0 0.292969 4.2625 0.292969 9.51875C0.292969 14.775 4.50623 19.0375 9.7032 19.0375C11.5902 19.0375 13.3473 18.475 14.8197 17.5125L15.2466 17.2125L21.9656 24L24.0505 21.8563L17.3378 15.0688L17.6471 14.625ZM14.9806 4.2C16.385 5.61875 17.1584 7.50625 17.1584 9.5125C17.1584 11.5187 16.385 13.4063 14.9806 14.825C13.5762 16.2438 11.7077 17.025 9.72176 17.025C7.73577 17.025 5.86734 16.2438 4.46292 14.825C3.0585 13.4063 2.28514 11.5187 2.28514 9.5125C2.28514 7.50625 3.0585 5.61875 4.46292 4.2C5.86734 2.78125 7.73577 2 9.72176 2C11.7077 2 13.5762 2.78125 14.9806 4.2Z" fill="#10537D"/>
</svg>
