<svg width="18" height="12" viewBox="0 0 18 12" fill="none" xmlns="http://www.w3.org/2000/svg">
<path id="Symbol" d="M17.8213 10.0811C17.8213 9.81445 17.7188 9.58887 17.5444 9.41455L9.59766 1.2832C9.40283 1.08838 9.16699 0.98584 8.91064 0.98584C8.64404 0.98584 8.39795 1.08838 8.22363 1.2832L0.287109 9.4043C0.102539 9.58887 0 9.81445 0 10.0811C0 10.6143 0.410156 11.0142 0.943359 11.0142C1.18945 11.0142 1.43555 10.9116 1.60986 10.7476L8.91064 3.28271L16.2114 10.7476C16.3857 10.9116 16.6216 11.0142 16.8779 11.0142C17.4111 11.0142 17.8213 10.6143 17.8213 10.0811Z" fill="black"/>
</svg>
