<svg width="29" height="29" viewBox="0 0 29 29" fill="none" xmlns="http://www.w3.org/2000/svg">
<g id="Inner Plugin Iframe">
<g id="Group">
<path id="Vector" d="M0.90625 17.9436C1.1466 17.9436 1.37711 18.0391 1.54707 18.209C1.71702 18.379 1.8125 18.6095 1.8125 18.8499V23.3811C1.8125 23.8618 2.00346 24.3228 2.34337 24.6627C2.68328 25.0026 3.14429 25.1936 3.625 25.1936H25.375C25.8557 25.1936 26.3167 25.0026 26.6566 24.6627C26.9965 24.3228 27.1875 23.8618 27.1875 23.3811V18.8499C27.1875 18.6095 27.283 18.379 27.4529 18.209C27.6229 18.0391 27.8534 17.9436 28.0938 17.9436C28.3341 17.9436 28.5646 18.0391 28.7346 18.209C28.9045 18.379 29 18.6095 29 18.8499V23.3811C29 24.3425 28.6181 25.2645 27.9383 25.9444C27.2584 26.6242 26.3364 27.0061 25.375 27.0061H3.625C2.66359 27.0061 1.74156 26.6242 1.06174 25.9444C0.381919 25.2645 0 24.3425 0 23.3811V18.8499C0 18.6095 0.0954797 18.379 0.265435 18.209C0.435389 18.0391 0.665898 17.9436 0.90625 17.9436Z" fill="black"/>
<path id="Vector_2" d="M13.8583 2.07704C13.9425 1.99264 14.0425 1.92568 14.1526 1.87999C14.2627 1.83431 14.3807 1.81079 14.4999 1.81079C14.6191 1.81079 14.7372 1.83431 14.8473 1.87999C14.9574 1.92568 15.0574 1.99264 15.1415 2.07704L20.5791 7.51454C20.7492 7.68471 20.8448 7.9155 20.8448 8.15616C20.8448 8.39682 20.7492 8.62762 20.5791 8.79779C20.4089 8.96796 20.1781 9.06356 19.9374 9.06356C19.6968 9.06356 19.466 8.96796 19.2958 8.79779L15.4062 4.90635V20.8437C15.4062 21.084 15.3107 21.3145 15.1407 21.4845C14.9708 21.6544 14.7403 21.7499 14.4999 21.7499C14.2596 21.7499 14.0291 21.6544 13.8591 21.4845C13.6892 21.3145 13.5937 21.084 13.5937 20.8437V4.90635L9.70405 8.79779C9.61979 8.88205 9.51976 8.94888 9.40967 8.99448C9.29958 9.04009 9.18159 9.06356 9.06242 9.06356C8.94326 9.06356 8.82527 9.04009 8.71518 8.99448C8.60509 8.94888 8.50506 8.88205 8.4208 8.79779C8.33654 8.71353 8.2697 8.6135 8.2241 8.50341C8.1785 8.39332 8.15503 8.27532 8.15503 8.15616C8.15503 8.037 8.1785 7.91901 8.2241 7.80892C8.2697 7.69883 8.33654 7.5988 8.4208 7.51454L13.8583 2.07704Z" fill="black"/>
</g>
</g>
</svg>
