<svg width="11" height="19" viewBox="0 0 11 19" fill="none" xmlns="http://www.w3.org/2000/svg">
<path d="M9.09521 0.5C8.82861 0.5 8.60303 0.602539 8.42871 0.776855L0.297363 8.72363C0.102539 8.91846 0 9.1543 0 9.41064C0 9.67725 0.102539 9.92334 0.297363 10.0977L8.41846 18.0342C8.60303 18.2188 8.82861 18.3213 9.09521 18.3213C9.62842 18.3213 10.0283 17.9111 10.0283 17.3779C10.0283 17.1318 9.92578 16.8857 9.76172 16.7114L2.29688 9.41064L9.76172 2.10986C9.92578 1.93555 10.0283 1.69971 10.0283 1.44336C10.0283 0.910156 9.62842 0.5 9.09521 0.5Z" fill="black"/>
</svg>
