<svg width="44" height="44" viewBox="0 0 44 44" fill="none" xmlns="http://www.w3.org/2000/svg">
<circle cx="22" cy="22" r="22" fill="#10537D"/>
<g clip-path="url(#clip0_2703_3078)">
<path d="M30.0879 13.2548L30.5842 13.7511C30.9697 14.1367 30.9697 14.7601 30.5842 15.1416L29.3906 16.3392L27.4998 14.4484L28.6934 13.2548C29.0789 12.8693 29.7023 12.8693 30.0838 13.2548H30.0879ZM20.6051 21.3472L26.1094 15.8388L28.0002 17.7296L22.4918 23.2339C22.3729 23.3529 22.2252 23.439 22.0652 23.4841L19.6658 24.1691L20.3508 21.7697C20.3959 21.6097 20.482 21.4621 20.601 21.3431L20.6051 21.3472ZM27.3029 11.8644L19.2105 19.9527C18.8537 20.3095 18.5953 20.7484 18.46 21.2283L17.2869 25.3298C17.1885 25.6744 17.2828 26.0435 17.5371 26.2978C17.7914 26.5521 18.1605 26.6464 18.5051 26.548L22.6066 25.375C23.0906 25.2355 23.5295 24.9771 23.8822 24.6244L31.9746 16.5361C33.1271 15.3835 33.1271 13.5132 31.9746 12.3607L31.4783 11.8644C30.3258 10.7119 28.4555 10.7119 27.3029 11.8644ZM15.6094 13.464C13.616 13.464 12 15.08 12 17.0734V28.2296C12 30.223 13.616 31.839 15.6094 31.839H26.7656C28.759 31.839 30.375 30.223 30.375 28.2296V23.6359C30.375 23.0904 29.9361 22.6515 29.3906 22.6515C28.8451 22.6515 28.4062 23.0904 28.4062 23.6359V28.2296C28.4062 29.1361 27.6721 29.8703 26.7656 29.8703H15.6094C14.7029 29.8703 13.9688 29.1361 13.9688 28.2296V17.0734C13.9688 16.1669 14.7029 15.4328 15.6094 15.4328H20.2031C20.7486 15.4328 21.1875 14.9939 21.1875 14.4484C21.1875 13.9029 20.7486 13.464 20.2031 13.464H15.6094Z" fill="white"/>
</g>
<defs>
<clipPath id="clip0_2703_3078">
<rect width="21" height="21" fill="white" transform="translate(12 11)"/>
</clipPath>
</defs>
</svg>
