<svg width="28" height="28" viewBox="0 0 28 28" fill="none" xmlns="http://www.w3.org/2000/svg">
<path d="M4.66699 5.83333H11.667M11.667 5.83333C11.667 7.122 12.7116 8.16667 14.0003 8.16667C15.289 8.16667 16.3337 7.122 16.3337 5.83333M11.667 5.83333C11.667 4.54467 12.7116 3.5 14.0003 3.5C15.289 3.5 16.3337 4.54467 16.3337 5.83333M16.3337 5.83333H23.3337M4.66699 14H18.667M18.667 14C18.667 15.2887 19.7116 16.3333 21.0003 16.3333C22.289 16.3333 23.3337 15.2887 23.3337 14C23.3337 12.7113 22.289 11.6667 21.0003 11.6667C19.7116 11.6667 18.667 12.7113 18.667 14ZM9.33366 22.1667H23.3337M9.33366 22.1667C9.33366 20.878 8.28899 19.8333 7.00033 19.8333C5.71166 19.8333 4.66699 20.878 4.66699 22.1667C4.66699 23.4554 5.71166 24.5 7.00033 24.5C8.28899 24.5 9.33366 23.4554 9.33366 22.1667Z" stroke="black" stroke-linecap="round"/>
</svg>
