<svg xmlns="http://www.w3.org/2000/svg" width="22" height="22" viewBox="0 4 22 22" fill="none">
  <path fill-rule="evenodd" clip-rule="evenodd" d="M3.4375 21.75C3.4375 21.5096 3.50993 21.2791 3.63886 21.1092C3.7678 20.9392 3.94266 20.8438 4.125 20.8438H17.875C18.0573 20.8438 18.2322 20.9392 18.3611 21.1092C18.4901 21.2791 18.5625 21.5096 18.5625 21.75C18.5625 21.9904 18.4901 22.2209 18.3611 22.3908C18.2322 22.5608 18.0573 22.6562 17.875 22.6562H4.125C3.94266 22.6562 3.7678 22.5608 3.63886 22.3908C3.50993 22.2209 3.4375 21.9904 3.4375 21.75ZM3.4375 14.5C3.4375 14.2596 3.50993 14.0291 3.63886 13.8592C3.7678 13.6892 3.94266 13.5938 4.125 13.5938H17.875C18.0573 13.5938 18.2322 13.6892 18.3611 13.8592C18.4901 14.0291 18.5625 14.2596 18.5625 14.5C18.5625 14.7404 18.4901 14.9709 18.3611 15.1408C18.2322 15.3108 18.0573 15.4062 17.875 15.4062H4.125C3.94266 15.4062 3.7678 15.3108 3.63886 15.1408C3.50993 14.9709 3.4375 14.7404 3.4375 14.5ZM3.4375 7.25C3.4375 7.00965 3.50993 6.77914 3.63886 6.60918C3.7678 6.43923 3.94266 6.34375 4.125 6.34375H17.875C18.0573 6.34375 18.2322 6.43923 18.3611 6.60918C18.4901 6.77914 18.5625 7.00965 18.5625 7.25C18.5625 7.49035 18.4901 7.72086 18.3611 7.89082C18.2322 8.06077 18.0573 8.15625 17.875 8.15625H4.125C3.94266 8.15625 3.7678 8.06077 3.63886 7.89082C3.50993 7.72086 3.4375 7.49035 3.4375 7.25Z" fill="black"/>
</svg>