<svg width="14" height="20" viewBox="0 0 14 20" fill="none" xmlns="http://www.w3.org/2000/svg">
<ellipse cx="6.65384" cy="6.17842" rx="2.46439" ry="2.05952" fill="white"/>
<path d="M6.65385 18.411C6.48493 18.1912 6.26797 17.9047 6.01685 17.5635C5.39819 16.7231 4.57409 15.5539 3.75086 14.2374C2.92672 12.9194 2.10905 11.4627 1.49887 10.0462C0.884803 8.62066 0.5 7.27892 0.5 6.17857C0.5 3.07663 3.21963 0.5 6.65385 0.5C10.0881 0.5 12.8077 3.07663 12.8077 6.17857C12.8077 7.27892 12.4229 8.62066 11.8088 10.0462C11.1986 11.4627 10.381 12.9194 9.55683 14.2374C8.7336 15.5539 7.9095 16.7231 7.29084 17.5635C7.03973 17.9047 6.82277 18.1912 6.65385 18.411ZM3.98673 6.17857C3.98673 7.60025 5.21648 8.6909 6.65385 8.6909C8.09122 8.6909 9.32097 7.60025 9.32097 6.17857C9.32097 4.7569 8.09122 3.66624 6.65385 3.66624C5.21648 3.66624 3.98673 4.7569 3.98673 6.17857Z" fill="white"/>
<path d="M6.65385 18.411C6.48493 18.1912 6.26797 17.9047 6.01685 17.5635C5.39819 16.7231 4.57409 15.5539 3.75086 14.2374C2.92672 12.9194 2.10905 11.4627 1.49887 10.0462C0.884803 8.62066 0.5 7.27892 0.5 6.17857C0.5 3.07663 3.21963 0.5 6.65385 0.5C10.0881 0.5 12.8077 3.07663 12.8077 6.17857C12.8077 7.27892 12.4229 8.62066 11.8088 10.0462C11.1986 11.4627 10.381 12.9194 9.55683 14.2374C8.7336 15.5539 7.9095 16.7231 7.29084 17.5635C7.03973 17.9047 6.82277 18.1912 6.65385 18.411ZM3.98673 6.17857C3.98673 7.60025 5.21648 8.6909 6.65385 8.6909C8.09122 8.6909 9.32097 7.60025 9.32097 6.17857C9.32097 4.7569 8.09122 3.66624 6.65385 3.66624C5.21648 3.66624 3.98673 4.7569 3.98673 6.17857Z" fill="white"/>
<path d="M6.65385 18.411C6.48493 18.1912 6.26797 17.9047 6.01685 17.5635C5.39819 16.7231 4.57409 15.5539 3.75086 14.2374C2.92672 12.9194 2.10905 11.4627 1.49887 10.0462C0.884803 8.62066 0.5 7.27892 0.5 6.17857C0.5 3.07663 3.21963 0.5 6.65385 0.5C10.0881 0.5 12.8077 3.07663 12.8077 6.17857C12.8077 7.27892 12.4229 8.62066 11.8088 10.0462C11.1986 11.4627 10.381 12.9194 9.55683 14.2374C8.7336 15.5539 7.9095 16.7231 7.29084 17.5635C7.03973 17.9047 6.82277 18.1912 6.65385 18.411ZM3.98673 6.17857C3.98673 7.60025 5.21648 8.6909 6.65385 8.6909C8.09122 8.6909 9.32097 7.60025 9.32097 6.17857C9.32097 4.7569 8.09122 3.66624 6.65385 3.66624C5.21648 3.66624 3.98673 4.7569 3.98673 6.17857Z" stroke="black"/>
</svg>
