<svg width="18" height="11" viewBox="0 0 18 11" fill="none" xmlns="http://www.w3.org/2000/svg">
<path id="Symbol" d="M0 0.933105C0 1.19971 0.102539 1.42529 0.276855 1.59961L8.22363 9.73096C8.41846 9.92578 8.6543 10.0283 8.91064 10.0283C9.17725 10.0283 9.42334 9.92578 9.59766 9.73096L17.5342 1.60986C17.7188 1.42529 17.8213 1.19971 17.8213 0.933105C17.8213 0.399902 17.4111 0 16.8779 0C16.6318 0 16.3857 0.102539 16.2114 0.266602L8.91064 7.73145L1.60986 0.266602C1.43555 0.102539 1.19971 0 0.943359 0C0.410156 0 0 0.399902 0 0.933105Z" fill="black"/>
</svg>
