<svg width="21" height="21" viewBox="0 0 21 21" fill="none" xmlns="http://www.w3.org/2000/svg">
<g clip-path="url(#clip0_569_6705)">
<path d="M6.125 4.375C6.125 3.89193 5.9541 3.47949 5.6123 3.1377C5.27051 2.7959 4.85807 2.625 4.375 2.625C3.89193 2.625 3.47949 2.7959 3.1377 3.1377C2.7959 3.47949 2.625 3.89193 2.625 4.375C2.625 4.85807 2.7959 5.27051 3.1377 5.6123C3.47949 5.9541 3.89193 6.125 4.375 6.125C4.85807 6.125 5.27051 5.9541 5.6123 5.6123C5.9541 5.27051 6.125 4.85807 6.125 4.375ZM20.7129 12.25C20.7129 12.7331 20.5443 13.1432 20.207 13.4805L13.4941 20.207C13.1387 20.5443 12.724 20.7129 12.25 20.7129C11.7669 20.7129 11.3568 20.5443 11.0195 20.207L1.24414 10.418C0.897786 10.0807 0.603841 9.62044 0.362305 9.03711C0.120768 8.45378 0 7.92057 0 7.4375V1.75C0 1.27604 0.173177 0.865885 0.519531 0.519531C0.865885 0.173177 1.27604 0 1.75 0H7.4375C7.92057 0 8.45378 0.120768 9.03711 0.362305C9.62044 0.603841 10.0853 0.897786 10.4316 1.24414L20.207 11.0059C20.5443 11.3613 20.7129 11.776 20.7129 12.25Z" fill="#6BBEF0"/>
</g>
<defs>
<clipPath id="clip0_569_6705">
<rect width="21" height="21" fill="white"/>
</clipPath>
</defs>
</svg>
